# Blender 3.4.0
# www.blender.org
mtllib onigiri.mtl
o Cube
v -0.598354 -0.598353 -0.842502
v -0.598354 -0.598353 0.842502
v -0.598354 0.598353 -0.139631
v -0.598354 0.598353 0.139631
v 0.598354 -0.598353 -0.842502
v 0.598354 -0.598353 0.842502
v 0.598354 0.598353 -0.139631
v 0.598354 0.598353 0.139631
vn -1.0000 -0.0000 -0.0000
vn -0.0000 1.0000 -0.0000
vn 1.0000 -0.0000 -0.0000
vn -0.0000 -1.0000 -0.0000
vn -0.0000 0.5064 -0.8623
vn -0.0000 0.5064 0.8623
vt 0.999817 0.333151
vt 0.666484 0.694291
vt 0.666484 0.000183
vt 0.666850 0.333151
vt 0.666484 0.361323
vt 0.000183 0.000183
vt 0.860925 0.000183
vt 0.722033 0.666484
vt 0.666484 0.360958
vt 0.805741 0.000183
vt 0.666849 0.666484
vt 0.000183 0.360958
vt 0.333151 0.361323
vt 0.333516 0.694291
vt 0.333516 0.000183
vt 0.000183 0.361323
vt 0.333516 0.361323
vt 0.333151 0.000183
vt 0.722033 0.333516
vt 0.194259 0.694291
vt 0.333516 0.360958
vt 0.666849 0.333516
vt 0.139075 0.694291
vt 0.333151 0.360958
s 0
usemtl Material.001
f 1/1/1 2/4/1 4/10/1 3/7/1
f 3/8/2 4/11/2 8/22/2 7/19/2
f 7/20/3 8/23/3 6/16/3 5/13/3
f 5/14/4 6/17/4 2/5/4 1/2/4
f 3/9/5 7/21/5 5/15/5 1/3/5
f 8/24/6 4/12/6 2/6/6 6/18/6
