# Blender 3.4.0
# www.blender.org
mtllib DragonGem.mtl
o Circle
v 0.000000 -0.000000 0.000000
v 0.443814 1.060660 1.056190
v 1.056190 1.060660 0.443814
vn 0.5000 -0.7071 0.5000
vt 0.000000 0.000000
vt 0.000000 0.000000
vt 0.000000 0.000000
s 0
usemtl Material.012
f 2/2/1 1/1/1 3/3/1
o Circle.001
v 0.000000 -0.000001 0.000000
v 0.433013 1.060660 -1.060660
v -0.433013 1.060660 -1.060660
vn -0.0000 -0.7071 -0.7071
vt 0.000000 0.000000
vt 0.000000 0.000000
vt 0.000000 0.000000
s 0
usemtl Material.001
f 5/5/2 4/4/2 6/6/2
o Circle.002
v 0.000000 0.000000 0.000000
v -0.433013 1.060660 1.060660
v 0.433013 1.060660 1.060660
vn -0.0000 -0.7071 0.7071
vt 0.000000 0.000000
vt 0.000000 0.000000
vt 0.000000 0.000000
s 0
usemtl Material.004
f 8/8/3 7/7/3 9/9/3
o Circle.003
v -0.000000 -0.000000 -0.000000
v 1.060660 1.060660 0.433013
v 1.060660 1.060660 -0.433013
vn 0.7071 -0.7071 -0.0000
vt 0.000000 0.000000
vt 0.000000 0.000000
vt 0.000000 0.000000
s 0
usemtl Material.010
f 11/11/4 10/10/4 12/12/4
o Circle.004
v -0.000000 -0.000000 0.000003
v 1.056190 1.060660 -0.443814
v 0.443814 1.060660 -1.056190
l 14 13
l 15 14
l 13 15
o Circle.005
v 0.000000 -0.000000 -0.000001
v -1.060660 1.060660 -0.433013
v -1.060660 1.060660 0.433013
vn -0.7071 -0.7071 -0.0000
vt 0.000000 0.000000
vt 0.000000 0.000000
vt 0.000000 0.000000
s 0
usemtl Material.016
f 17/14/5 16/13/5 18/15/5
o Circle.006
v -0.000000 -0.000000 0.000003
v 1.056186 1.060660 -0.443814
v 0.443814 1.060660 -1.056186
vn 0.5000 -0.7071 -0.5000
vt 0.000000 0.000000
vt 0.000000 0.000000
vt 0.000000 0.000000
s 0
usemtl Material.008
f 20/17/6 19/16/6 21/18/6
o Circle.007
v 0.000000 -0.000000 0.000000
v -0.443816 1.060660 -1.056190
v -1.056190 1.060660 -0.443814
vn -0.5000 -0.7071 -0.5000
vt 0.000000 0.000000
vt 0.000000 0.000000
vt 0.000000 0.000000
s 0
usemtl Material.006
f 23/20/7 22/19/7 24/21/7
o Circle.008
v -0.000002 -0.000000 -0.000002
v -1.056190 1.060660 0.443814
v -0.443816 1.060660 1.056190
vn -0.5000 -0.7071 0.5000
vt 0.000000 0.000000
vt 0.000000 0.000000
vt 0.000000 0.000000
s 0
usemtl Material.014
f 26/23/8 25/22/8 27/24/8
o Circle.009
v 0.000000 1.601611 0.000000
v -0.433013 1.060660 1.060567
v 0.433013 1.060660 1.060567
vn -0.0000 0.8908 0.4544
vt 0.000000 0.000000
vt 0.000000 0.000000
vt 0.000000 0.000000
s 0
usemtl Material.003
f 29/26/9 30/27/9 28/25/9
o Circle.011
v 0.000000 1.601570 -0.000000
v 0.443814 1.060659 1.056190
v 1.056191 1.060659 0.443814
vn 0.3212 0.8908 0.3212
vt 0.000000 0.000000
vt 0.000000 0.000000
vt 0.000000 0.000000
s 0
usemtl Material.011
f 32/29/10 33/30/10 31/28/10
o Circle.012
v -0.000000 1.601571 -0.000000
v -1.056190 1.060660 0.443814
v -0.443816 1.060660 1.056190
vn -0.3212 0.8908 0.3212
vt 0.000000 0.000000
vt 0.000000 0.000000
vt 0.000000 0.000000
s 0
usemtl Material.013
f 35/32/11 36/33/11 34/31/11
o Circle.010
v 0.000000 1.601571 0.000000
v -1.060660 1.060660 -0.433013
v -1.060660 1.060660 0.433013
vn -0.4543 0.8908 -0.0000
vt 0.000000 0.000000
vt 0.000000 0.000000
vt 0.000000 0.000000
s 0
usemtl Material.015
f 38/35/12 39/36/12 37/34/12
o Circle.013
v -0.000000 1.601571 -0.000000
v -0.443816 1.060660 -1.056190
v -1.056190 1.060660 -0.443814
vn -0.3212 0.8908 -0.3212
vt 0.000000 0.000000
vt 0.000000 0.000000
vt 0.000000 0.000000
s 0
usemtl Material.005
f 41/38/13 42/39/13 40/37/13
o Circle.014
v 0.000000 1.601571 0.000000
v 0.433013 1.060659 -1.060660
v -0.433013 1.060660 -1.060660
vn -0.0000 0.8908 -0.4543
vt 0.000000 0.000000
vt 0.000000 0.000000
vt 0.000000 0.000000
s 0
usemtl Material.002
f 44/41/14 45/42/14 43/40/14
o Circle.015
v 0.000000 1.601571 0.000000
v 1.056190 1.060659 -0.443814
v 0.443814 1.060659 -1.056190
vn 0.3212 0.8908 -0.3212
vt 0.000000 0.000000
vt 0.000000 0.000000
vt 0.000000 0.000000
s 0
usemtl Material.007
f 47/44/15 48/45/15 46/43/15
o Circle.016
v -0.000000 1.601571 0.000000
v 1.060660 1.060659 0.433013
v 1.060660 1.060659 -0.433013
vn 0.4543 0.8908 -0.0000
vt 0.000000 0.000000
vt 0.000000 0.000000
vt 0.000000 0.000000
s 0
usemtl Material.009
f 50/47/16 51/48/16 49/46/16
