# Blender 3.4.0
# www.blender.org
mtllib Komainu.mtl
o Cube
v 0.300000 1.600000 -0.300000
v 0.300000 0.600000 -0.300000
v 0.300000 1.600000 0.300000
v 0.300000 0.600000 0.300000
v -0.300000 1.600000 -0.300000
v -0.300000 0.600000 -0.300000
v -0.300000 1.600000 0.300000
v -0.300000 0.600000 0.300000
vn -0.0000 1.0000 -0.0000
vn -0.0000 -0.0000 1.0000
vn -1.0000 -0.0000 -0.0000
vn -0.0000 -1.0000 -0.0000
vn 1.0000 -0.0000 -0.0000
vn -0.0000 -0.0000 -1.0000
vt 0.111175 0.222158
vt 0.222158 0.222158
vt 0.111175 0.111175
vt 0.222158 0.111175
vt 0.000192 0.222158
vt 0.111175 0.333141
vt 0.333141 0.222158
vt 0.222158 0.333141
vt 0.000192 0.111175
vt 0.111175 0.000192
vt 0.111175 0.444124
vt 0.222158 0.000192
vt 0.222158 0.444124
vt 0.333141 0.111175
s 0
usemtl Material
f 1/1/1 5/5/1 7/9/1 3/3/1
f 4/4/2 3/3/2 7/10/2 8/12/2
f 8/13/3 7/11/3 5/6/3 6/8/3
f 6/7/4 2/2/4 4/4/4 8/14/4
f 2/2/5 1/1/5 3/3/5 4/4/5
f 6/8/6 5/6/6 1/1/6 2/2/6
o Cube.001
v 0.400000 2.000000 -0.400000
v 0.400000 1.800000 -0.400000
v 0.400000 2.000000 0.400000
v 0.400000 1.800000 0.400000
v -0.400000 2.000000 -0.400000
v -0.400000 1.800000 -0.400000
v -0.400000 2.000000 0.400000
v -0.400000 1.800000 0.400000
vn -0.0000 1.0000 -0.0000
vn -0.0000 -0.0000 1.0000
vn -1.0000 -0.0000 -0.0000
vn -0.0000 -1.0000 -0.0000
vn 1.0000 -0.0000 -0.0000
vn -0.0000 -0.0000 -1.0000
vt 0.777842 0.222158
vt 0.888825 0.222158
vt 0.777842 0.111175
vt 0.888825 0.111175
vt 0.666859 0.222158
vt 0.777842 0.333141
vt 0.999808 0.222158
vt 0.888825 0.333141
vt 0.666859 0.111175
vt 0.777842 0.000192
vt 0.777842 0.444124
vt 0.888825 0.000192
vt 0.888825 0.444124
vt 0.999808 0.111175
s 0
usemtl Material.001
f 9/15/7 13/19/7 15/23/7 11/17/7
f 12/18/8 11/17/8 15/24/8 16/26/8
f 16/27/9 15/25/9 13/20/9 14/22/9
f 14/21/10 10/16/10 12/18/10 16/28/10
f 10/16/11 9/15/11 11/17/11 12/18/11
f 14/22/12 13/20/12 9/15/12 10/16/12
o Cube.002
v 0.400000 0.600000 -0.400000
v 0.400000 0.200000 -0.400000
v 0.400000 0.600000 0.400000
v 0.400000 0.200000 0.400000
v -0.400000 0.600000 -0.400000
v -0.400000 0.200000 -0.400000
v -0.400000 0.600000 0.400000
v -0.400000 0.200000 0.400000
vn -0.0000 1.0000 -0.0000
vn -0.0000 -0.0000 1.0000
vn -1.0000 -0.0000 -0.0000
vn -0.0000 -1.0000 -0.0000
vn 1.0000 -0.0000 -0.0000
vn -0.0000 -0.0000 -1.0000
vt 0.444509 0.222158
vt 0.555492 0.222158
vt 0.444509 0.111175
vt 0.555492 0.111175
vt 0.333526 0.222158
vt 0.444509 0.333141
vt 0.666474 0.222158
vt 0.555492 0.333141
vt 0.333526 0.111175
vt 0.444509 0.000192
vt 0.444509 0.444124
vt 0.555492 0.000192
vt 0.555492 0.444124
vt 0.666474 0.111175
s 0
usemtl Material.002
f 17/29/13 21/33/13 23/37/13 19/31/13
f 20/32/14 19/31/14 23/38/14 24/40/14
f 24/41/15 23/39/15 21/34/15 22/36/15
f 22/35/16 18/30/16 20/32/16 24/42/16
f 18/30/17 17/29/17 19/31/17 20/32/17
f 22/36/18 21/34/18 17/29/18 18/30/18
o Cube.003
v 0.500000 0.200000 -0.500000
v 0.500000 -0.200000 -0.500000
v 0.500000 0.200000 0.500000
v 0.500000 -0.200000 0.500000
v -0.500000 0.200000 -0.500000
v -0.500000 -0.200000 -0.500000
v -0.500000 0.200000 0.500000
v -0.500000 -0.200000 0.500000
vn -0.0000 1.0000 -0.0000
vn -0.0000 -0.0000 1.0000
vn -1.0000 -0.0000 -0.0000
vn -0.0000 -1.0000 -0.0000
vn 1.0000 -0.0000 -0.0000
vn -0.0000 -0.0000 -1.0000
vt 0.111175 0.666474
vt 0.222158 0.666474
vt 0.111175 0.555491
vt 0.222158 0.555491
vt 0.000192 0.666474
vt 0.111175 0.777457
vt 0.333141 0.666474
vt 0.222158 0.777457
vt 0.000192 0.555491
vt 0.111175 0.444508
vt 0.111175 0.888440
vt 0.222158 0.444508
vt 0.222158 0.888440
vt 0.333141 0.555491
s 0
usemtl Material.003
f 25/43/19 29/47/19 31/51/19 27/45/19
f 28/46/20 27/45/20 31/52/20 32/54/20
f 32/55/21 31/53/21 29/48/21 30/50/21
f 30/49/22 26/44/22 28/46/22 32/56/22
f 26/44/23 25/43/23 27/45/23 28/46/23
f 30/50/24 29/48/24 25/43/24 26/44/24
o Cube.004
v 0.500000 1.800000 -0.500000
v 0.500000 1.600000 -0.500000
v 0.500000 1.800000 0.500000
v 0.500000 1.600000 0.500000
v -0.500000 1.800000 -0.500000
v -0.500000 1.600000 -0.500000
v -0.500000 1.800000 0.500000
v -0.500000 1.600000 0.500000
vn -0.0000 1.0000 -0.0000
vn -0.0000 -0.0000 1.0000
vn -1.0000 -0.0000 -0.0000
vn -0.0000 -1.0000 -0.0000
vn 1.0000 -0.0000 -0.0000
vn -0.0000 -0.0000 -1.0000
vt 0.444509 0.666474
vt 0.555492 0.666474
vt 0.444509 0.555491
vt 0.555492 0.555491
vt 0.333526 0.666474
vt 0.444509 0.777457
vt 0.666474 0.666474
vt 0.555492 0.777457
vt 0.333526 0.555491
vt 0.444509 0.444508
vt 0.444509 0.888440
vt 0.555492 0.444508
vt 0.555492 0.888440
vt 0.666474 0.555491
s 0
usemtl Material.004
f 33/57/25 37/61/25 39/65/25 35/59/25
f 36/60/26 35/59/26 39/66/26 40/68/26
f 40/69/27 39/67/27 37/62/27 38/64/27
f 38/63/28 34/58/28 36/60/28 40/70/28
f 34/58/29 33/57/29 35/59/29 36/60/29
f 38/64/30 37/62/30 33/57/30 34/58/30
